<?xml version="1.0" encoding="UTF-8"?>
<svg id="Layer_1" data-name="Layer 1" xmlns="http://www.w3.org/2000/svg" viewBox="0 0 354.52 64.6">
  <defs>
    <style>
      .cls-1 {
        fill: #904b3c;
      }
    </style>
  </defs>
  <path class="cls-1" d="M12.75,0V24.36c3.84-3.58,7.94-5.15,12.66-5.15,11.35,0,19.12,8.99,19.12,22.52s-8.03,22.87-19.73,22.87c-5.06,0-9.69-1.75-12.48-5.67l-.87,4.8H0V0H12.75Zm-.87,41.99c0,6.81,3.4,11.7,9.69,11.7s9.86-4.54,9.86-11.79-3.67-11.79-9.6-11.79-9.95,4.71-9.95,11.87Z"/>
  <path class="cls-1" d="M49.77,41.73c0-13.62,9.17-22.52,22.87-22.52s22.87,8.9,22.87,22.52-9.17,22.87-22.87,22.87-22.87-9.25-22.87-22.87Zm22.87,11.87c6.11,0,9.78-4.54,9.78-11.87s-3.67-11.52-9.78-11.52-9.78,4.19-9.78,11.52,3.67,11.87,9.78,11.87Z"/>
  <path class="cls-1" d="M100.75,41.73c0-13.62,9.17-22.52,22.87-22.52s22.87,8.9,22.87,22.52-9.17,22.87-22.87,22.87-22.87-9.25-22.87-22.87Zm22.87,11.87c6.11,0,9.78-4.54,9.78-11.87s-3.67-11.52-9.78-11.52-9.78,4.19-9.78,11.52,3.67,11.87,9.78,11.87Z"/>
  <path class="cls-1" d="M168.15,0V35.27h2.71l11.79-15.19h14.84v.35l-15.19,18.94,2.27,3.75c2.44,4.1,5.76,9.34,11.17,9.34,.61,0,1.22-.09,1.75-.17v11.7c-1.75,.44-3.49,.61-4.98,.61-10.04,0-14.75-8.21-19.56-16.76l-.7-1.22h-4.1v17.11h-12.75V0h12.75Z"/>
  <path class="cls-1" d="M250.63,5.92l.64,13.56h-1.62c-.31-2.39-.74-4.09-1.28-5.12-.88-1.65-2.05-2.86-3.52-3.65-1.46-.78-3.39-1.17-5.78-1.17h-8.14V53.71c0,3.55,.38,5.77,1.15,6.65,1.08,1.19,2.74,1.79,4.99,1.79h2v1.58h-24.51v-1.58h2.05c2.44,0,4.18-.74,5.2-2.22,.62-.91,.94-2.99,.94-6.22V9.54h-6.95c-2.7,0-4.62,.2-5.75,.6-1.48,.54-2.74,1.58-3.79,3.11-1.05,1.53-1.68,3.61-1.88,6.22h-1.62l.68-13.56h47.19Z"/>
  <path class="cls-1" d="M272.2,58.1c-4.01,3.1-6.52,4.89-7.54,5.37-1.54,.71-3.17,1.07-4.9,1.07-2.7,0-4.92-.92-6.67-2.77s-2.62-4.28-2.62-7.29c0-1.9,.43-3.55,1.28-4.94,1.17-1.93,3.19-3.75,6.07-5.46,2.88-1.71,7.68-3.78,14.39-6.22v-1.53c0-3.89-.62-6.57-1.85-8.01-1.24-1.45-3.03-2.17-5.39-2.17-1.79,0-3.21,.48-4.26,1.45-1.08,.97-1.62,2.08-1.62,3.33l.08,2.47c0,1.31-.33,2.32-1,3.03-.67,.71-1.54,1.07-2.62,1.07s-1.91-.37-2.58-1.11c-.67-.74-1-1.75-1-3.03,0-2.44,1.25-4.69,3.75-6.74s6.01-3.07,10.53-3.07c3.47,0,6.31,.58,8.53,1.75,1.68,.88,2.91,2.26,3.71,4.14,.51,1.22,.77,3.72,.77,7.5v13.26c0,3.72,.07,6,.21,6.84s.38,1.4,.7,1.68c.33,.28,.7,.43,1.13,.43,.46,0,.85-.1,1.19-.3,.6-.37,1.75-1.41,3.45-3.11v2.39c-3.18,4.26-6.22,6.39-9.12,6.39-1.39,0-2.5-.48-3.32-1.45-.82-.97-1.25-2.61-1.28-4.94Zm0-2.77v-14.88c-4.29,1.71-7.06,2.91-8.31,3.62-2.25,1.25-3.85,2.56-4.82,3.92-.97,1.36-1.45,2.86-1.45,4.48,0,2.05,.61,3.75,1.83,5.09,1.22,1.35,2.63,2.03,4.22,2.03,2.16,0,5-1.42,8.53-4.26Z"/>
  <path class="cls-1" d="M302.25,3.11V54.9c0,2.44,.18,4.06,.53,4.86,.35,.8,.9,1.4,1.64,1.81,.74,.41,2.12,.62,4.14,.62v1.53h-19.14v-1.53c1.79,0,3.01-.18,3.67-.56,.65-.37,1.16-.98,1.53-1.83,.37-.85,.55-2.49,.55-4.9V19.44c0-4.41-.1-7.11-.3-8.12-.2-1.01-.52-1.7-.96-2.07-.44-.37-1-.55-1.68-.55-.74,0-1.68,.23-2.81,.68l-.72-1.49,11.64-4.77h1.92Z"/>
  <path class="cls-1" d="M324.63,3.11V41.94l9.93-9.04c2.1-1.93,3.32-3.15,3.67-3.67,.23-.34,.34-.68,.34-1.02,0-.57-.23-1.06-.7-1.47-.47-.41-1.24-.65-2.32-.7v-1.36h16.97v1.36c-2.33,.06-4.27,.41-5.82,1.07-1.55,.65-3.25,1.82-5.1,3.5l-10.02,9.25,10.02,12.66c2.79,3.5,4.66,5.71,5.63,6.65,1.36,1.34,2.56,2.2,3.58,2.6,.71,.28,1.95,.43,3.71,.43v1.53h-18.97v-1.53c1.08-.03,1.81-.19,2.19-.49,.38-.3,.58-.72,.58-1.26,0-.65-.57-1.71-1.71-3.15l-11.98-15.31v12.96c0,2.53,.18,4.19,.53,4.99s.86,1.36,1.51,1.7c.65,.34,2.07,.53,4.26,.56v1.53h-19.87v-1.53c1.99,0,3.48-.24,4.48-.72,.6-.31,1.05-.8,1.36-1.45,.43-.94,.64-2.56,.64-4.86V19.61c0-4.52-.1-7.28-.3-8.29-.2-1.01-.53-1.71-.98-2.09-.46-.38-1.05-.58-1.79-.58-.6,0-1.49,.24-2.69,.72l-.72-1.49,11.6-4.77h1.96Z"/>
</svg>